<svg aria-hidden="true" style="position: absolute; width: 0; height: 0; overflow: hidden;" version="1.1" xmlns="http://www.w3.org/2000/svg" xmlns:xlink="http://www.w3.org/1999/xlink">
<defs>
<symbol id="icon-Logo" viewBox="0 0 49 32">
<path  d="M32.578 27.097c-1.156 1.926-3.947 1.926-5.102 0l-16.115-26.856h32.075c2.313 0 3.741 2.524 2.551 4.507l-13.409 22.349z"></path>
<path d="M16.114 27.097c1.156 1.926 3.947 1.926 5.102 0l16.115-26.856h-32.076c-2.313 0-3.741 2.524-2.551 4.507l13.41 22.349z"></path>
<path d="M11.361 0.241h25.969l-12.983 21.641-12.986-21.641z"></path>
</symbol>
<symbol id="icon-logo2" viewBox="0 0 49 32">
<path fill="#ffd723" style="fill: var(--color1, #ffd723)" d="M32.578 27.097c-1.156 1.926-3.947 1.926-5.102 0l-16.115-26.856h32.075c2.313 0 3.741 2.524 2.551 4.507l-13.409 22.349z"></path>
<path fill="#fff" style="fill: var(--color2, #fff)" d="M16.114 27.097c1.156 1.926 3.947 1.926 5.102 0l16.115-26.856h-32.076c-2.313 0-3.741 2.524-2.551 4.507l13.41 22.349z"></path>
<path fill="#f6f6f6" style="fill: var(--color3, #f6f6f6)" d="M11.361 0.241h25.969l-12.983 21.641-12.986-21.641z"></path>
</symbol>
</defs>
</svg>
